<svg style="position: absolute; width: 0; height: 0; overflow: hidden;" version="1.1" xmlns="http://www.w3.org/2000/svg" xmlns:xlink="http://www.w3.org/1999/xlink">
<defs>
<symbol id="icon-reddit" viewBox="0 0 32 32">
<path fill="#fff" style="fill: var(--color1, #fff)" d="M28.433 12.411c-1.011 0-1.9 0.425-2.555 1.088-2.407-1.691-5.652-2.779-9.248-2.895l1.868-8.541 5.948 1.355c0 1.477 1.187 2.684 2.643 2.684 1.484 0 2.677-1.239 2.677-2.717s-1.185-2.717-2.676-2.717c-1.039 0-1.935 0.636-2.381 1.505l-6.569-1.477c-0.331-0.089-0.655 0.151-0.743 0.487l-2.051 9.416c-3.568 0.151-6.779 1.237-9.193 2.929-0.655-0.691-1.579-1.116-2.589-1.116-3.749 0-4.977 5.105-1.544 6.851-0.121 0.54-0.176 1.116-0.176 1.691 0 5.735 6.367 10.381 14.184 10.381 7.851 0 14.217-4.647 14.217-10.381 0-0.575-0.060-1.177-0.208-1.719 3.364-1.752 2.125-6.82-1.604-6.823zM7.468 19.624c0-1.505 1.187-2.717 2.677-2.717 1.456 0 2.644 1.204 2.644 2.717 0 1.479-1.187 2.684-2.644 2.684-1.484 0.007-2.677-1.205-2.677-2.684zM21.92 26.022c-2.455 2.491-9.381 2.491-11.837 0-0.271-0.24-0.271-0.664 0-0.937 0.236-0.24 0.655-0.24 0.891 0 1.875 1.951 8.093 1.984 10.049 0 0.236-0.24 0.655-0.24 0.891 0 0.276 0.275 0.276 0.699 0.007 0.937zM21.865 22.314c-1.456 0-2.643-1.204-2.643-2.681 0-1.505 1.187-2.717 2.643-2.717 1.484 0 2.677 1.204 2.677 2.717-0.007 1.471-1.193 2.681-2.677 2.681z"></path>
</symbol>
</defs>
</svg>