<svg style="position: absolute; width: 0; height: 0; overflow: hidden;" version="1.1" xmlns="http://www.w3.org/2000/svg" xmlns:xlink="http://www.w3.org/1999/xlink">
<defs>
<symbol id="icon-Vector_4" viewBox="0 0 40 32">
<path fill="#fff" style="fill: var(--color1, #fff)" d="M36.808 3.888l3.192-3.053v-0.668h-11.057l-7.88 19.613-8.965-19.613h-11.593v0.668l3.728 4.488c0.363 0.332 0.553 0.817 0.505 1.305v17.638c0.115 0.635-0.092 1.288-0.538 1.75l-4.2 5.090v0.66h11.908v-0.668l-4.2-5.082c-0.455-0.463-0.67-1.105-0.578-1.75v-15.257l10.453 22.765h1.215l8.988-22.765v18.135c0 0.478 0 0.577-0.313 0.89l-3.233 3.128v0.67h15.687v-0.668l-3.117-3.052c-0.273-0.207-0.415-0.553-0.357-0.89v-22.445c-0.058-0.338 0.082-0.685 0.355-0.89z"></path>
</symbol>
</defs>
</svg>