<svg style="position: absolute; width: 0; height: 0; overflow: hidden;" version="1.1" xmlns="http://www.w3.org/2000/svg" xmlns:xlink="http://www.w3.org/1999/xlink">
<defs>
<symbol id="icon-Vector_1" viewBox="0 0 32 32">
<path d="M1.769 16.533l4.747 3.467-1.803 5.583c-0.291 0.866-0.295 1.803-0.011 2.671s0.842 1.621 1.589 2.147c0.734 0.542 1.625 0.833 2.538 0.828s1.8-0.304 2.529-0.854l4.641-3.416 4.643 3.412c0.733 0.539 1.618 0.832 2.529 0.837s1.798-0.28 2.537-0.812c0.738-0.532 1.289-1.285 1.573-2.149s0.286-1.797 0.006-2.663l-1.803-5.583 4.747-3.467c0.732-0.535 1.277-1.288 1.555-2.152s0.277-1.792-0.004-2.655-0.827-1.614-1.561-2.147c-0.734-0.533-1.617-0.821-2.524-0.823h-5.831l-1.769-5.515c-0.278-0.868-0.825-1.625-1.561-2.163s-1.624-0.827-2.536-0.827c-0.912 0-1.8 0.289-2.536 0.827s-1.283 1.295-1.561 2.163l-1.769 5.515h-5.825c-0.907 0.001-1.79 0.289-2.524 0.823s-1.28 1.285-1.561 2.147c-0.281 0.862-0.282 1.792-0.004 2.655s0.823 1.616 1.555 2.152h-0.005z"></path>
</symbol>
</defs>
</svg>