<svg style="position: absolute; width: 0; height: 0; overflow: hidden;" version="1.1" xmlns="http://www.w3.org/2000/svg" xmlns:xlink="http://www.w3.org/1999/xlink">
<defs>
<symbol id="icon-Vector_2" viewBox="0 0 40 32">
<path fill="#fff" style="fill: var(--color1, #fff)" d="M38.334 0.999c-1.596 1.126-3.363 1.987-5.233 2.55-1.004-1.154-2.338-1.972-3.822-2.343s-3.046-0.278-4.475 0.268-2.656 1.517-3.515 2.782c-0.859 1.266-1.309 2.764-1.288 4.294v1.667c-2.929 0.076-5.831-0.574-8.448-1.891s-4.868-3.261-6.552-5.659c0 0-6.667 15 8.333 21.667-3.432 2.33-7.521 3.498-11.667 3.333 15 8.333 33.333 0 33.333-19.167-0.002-0.464-0.046-0.927-0.133-1.383 1.701-1.678 2.901-3.795 3.467-6.117z"></path>
</symbol>
</defs>
</svg>