<svg style="position: absolute; width: 0; height: 0; overflow: hidden;" version="1.1" xmlns="http://www.w3.org/2000/svg" xmlns:xlink="http://www.w3.org/1999/xlink">
<defs>
<symbol id="icon-Vector_5" viewBox="0 0 31 32">
<path fill="#fff" style="fill: var(--color1, #fff)" d="M26.64 16.191c-0.903 0.112-1.823 0.169-2.754 0.169-6.214 0-11.856-2.559-16.020-6.727 2.539 7.189 8.231 12.777 15.318 14.92 1.267 0.383 2.578 0.656 3.924 0.808 0.172 0.019 0.344 0.037 0.516 0.052l0.006-0.009c1.834-2.64 2.916-5.89 2.916-9.406 0-0.218-0.004-0.436-0.012-0.652-1.256 0.393-2.557 0.678-3.893 0.843z"></path>
<path fill="#fff" style="fill: var(--color1, #fff)" d="M3.904 16c0 6.578 5.090 11.91 11.368 11.91 2.302 0 4.444-0.717 6.234-1.948 1.418 0.686 2.953 1.151 4.565 1.353-2.764 2.895-6.582 4.686-10.799 4.686-8.435 0-15.273-7.163-15.273-16s6.838-16 15.273-16c7.543 0 13.808 5.728 15.049 13.259-1.217 0.425-2.502 0.693-3.834 0.783-0.89-5.647-5.573-9.952-11.215-9.952-6.279 0-11.368 5.332-11.368 11.91z"></path>
</symbol>
</defs>
</svg>