<svg style="position: absolute; width: 0; height: 0; overflow: hidden;" version="1.1" xmlns="http://www.w3.org/2000/svg" xmlns:xlink="http://www.w3.org/1999/xlink">
<defs>
<symbol id="icon-Vector" viewBox="0 0 38 32">
<path d="M36.426 4.106c-0.585-0.244-1.229-0.308-1.85-0.184s-1.191 0.429-1.638 0.878l-4.138 4.138-7.338-7.338c-0.6-0.6-1.414-0.937-2.262-0.937s-1.662 0.337-2.262 0.937l-7.338 7.338-4.138-4.138c-0.448-0.447-1.018-0.752-1.638-0.875s-1.264-0.060-1.849 0.182c-0.585 0.242-1.084 0.652-1.436 1.178s-0.539 1.145-0.539 1.777v16.938c0.003 2.121 0.846 4.154 2.346 5.654s3.533 2.343 5.654 2.346h22.4c2.121-0.003 4.154-0.846 5.654-2.346s2.343-3.533 2.346-5.654v-16.938c0-0.633-0.187-1.252-0.539-1.778s-0.851-0.937-1.436-1.179z"></path>
</symbol>
</defs>
</svg>